HIERARCHY
ROOT Root
{
  OFFSET 0.0 0.0 0.0
  CHANNELS 6 Xposition Yposition Zposition Zrotation Yrotation Xrotation
  JOINT Hips
  {
    OFFSET 0.0 100.0 0.0
    CHANNELS 6 Xposition Yposition Zposition Zrotation Yrotation Xrotation
    JOINT Spine1
    {
      OFFSET -0.013727 5.003763 -0.053727
      CHANNELS 3 Zrotation Yrotation Xrotation
      JOINT Spine2
      {
        OFFSET -0.0 7.125301 -0.029825
        CHANNELS 3 Zrotation Yrotation Xrotation
        JOINT Chest
        {
          OFFSET -1e-06 7.550063 -0.815971
          CHANNELS 3 Zrotation Yrotation Xrotation
          JOINT Neck1
          {
            OFFSET -0.181677 26.311295 -0.553348
            CHANNELS 3 Zrotation Yrotation Xrotation
            JOINT Neck2
            {
              OFFSET -3e-06 7.709397 2.302585
              CHANNELS 3 Zrotation Yrotation Xrotation
              JOINT Head
              {
                OFFSET -5e-06 6.128916 1.953709
                CHANNELS 3 Zrotation Yrotation Xrotation
                JOINT HeadEnd
                {
                  OFFSET 0.003598 16.065403 -1.835379
                  CHANNELS 3 Zrotation Yrotation Xrotation
                }
                JOINT Jaw
                {
                  OFFSET 0.002637 0.475592 3.094941
                  CHANNELS 3 Zrotation Yrotation Xrotation
                }
                JOINT LeftEye
                {
                  OFFSET 3.206381 5.380205 7.586883
                  CHANNELS 3 Zrotation Yrotation Xrotation
                }
                JOINT RightEye
                {
                  OFFSET -3.22244 5.361869 7.558234
                  CHANNELS 3 Zrotation Yrotation Xrotation
                }
              }
            }
          }
          JOINT LeftShoulder
          {
            OFFSET 1.621652 23.237164 5.113413
            CHANNELS 3 Zrotation Yrotation Xrotation
            JOINT LeftArm
            {
              OFFSET 14.919846 2e-06 -5.502326
              CHANNELS 3 Zrotation Yrotation Xrotation
              JOINT LeftForeArm
              {
                OFFSET 28.739307 0.0 -0.002588
                CHANNELS 3 Zrotation Yrotation Xrotation
                JOINT LeftHand
                {
                  OFFSET 27.093981 -1e-06 0.002609
                  CHANNELS 3 Zrotation Yrotation Xrotation
                  JOINT LeftHandThumb1
                  {
                    OFFSET 2.276482 -1.392045 3.191413
                    CHANNELS 3 Zrotation Yrotation Xrotation
                    JOINT LeftHandThumb2
                    {
                      OFFSET 4.012836 -1.828127 1.641654
                      CHANNELS 3 Zrotation Yrotation Xrotation
                      JOINT LeftHandThumb3
                      {
                        OFFSET 2.798515 0.0 -3e-06
                        CHANNELS 3 Zrotation Yrotation Xrotation
                        JOINT LeftHandThumbEnd
                        {
                          OFFSET 3.180793 -4e-06 4e-06
                          CHANNELS 3 Zrotation Yrotation Xrotation
                        }
                      }
                    }
                  }
                  JOINT LeftHandIndex1
                  {
                    OFFSET 3.247555 -0.531998 2.296169
                    CHANNELS 3 Zrotation Yrotation Xrotation
                    JOINT LeftHandIndex2
                    {
                      OFFSET 6.364578 0.01206 0.1786
                      CHANNELS 3 Zrotation Yrotation Xrotation
                      JOINT LeftHandIndex3
                      {
                        OFFSET 3.662364 0.0 0.0
                        CHANNELS 3 Zrotation Yrotation Xrotation
                        JOINT LeftHandIndex4
                        {
                          OFFSET 2.329242 4e-06 4e-06
                          CHANNELS 3 Zrotation Yrotation Xrotation
                          JOINT LeftHandIndexEnd
                          {
                            OFFSET 2.759615 -0.180537 -0.113024
                            CHANNELS 3 Zrotation Yrotation Xrotation
                          }
                        }
                      }
                    }
                  }
                  JOINT LeftHandMiddle1
                  {
                    OFFSET 3.163495 0.240981 1.000332
                    CHANNELS 3 Zrotation Yrotation Xrotation
                    JOINT LeftHandMiddle2
                    {
                      OFFSET 6.19078 -0.259278 -1.002548
                      CHANNELS 3 Zrotation Yrotation Xrotation
                      JOINT LeftHandMiddle3
                      {
                        OFFSET 4.35652 -4e-06 -1e-06
                        CHANNELS 3 Zrotation Yrotation Xrotation
                        JOINT LeftHandMiddle4
                        {
                          OFFSET 2.996877 -8e-06 0.0
                          CHANNELS 3 Zrotation Yrotation Xrotation
                          JOINT LeftHandMiddleEnd
                          {
                            OFFSET 2.304287 -0.294569 -0.031741
                            CHANNELS 3 Zrotation Yrotation Xrotation
                          }
                        }
                      }
                    }
                  }
                  JOINT LeftHandRing1
                  {
                    OFFSET 2.882643 -0.053652 -0.322543
                    CHANNELS 3 Zrotation Yrotation Xrotation
                    JOINT LeftHandRing2
                    {
                      OFFSET 5.854541 -0.486202 -1.373841
                      CHANNELS 3 Zrotation Yrotation Xrotation
                      JOINT LeftHandRing3
                      {
                        OFFSET 4.350578 0.0 3e-06
                        CHANNELS 3 Zrotation Yrotation Xrotation
                        JOINT LeftHandRing4
                        {
                          OFFSET 2.651321 7e-06 2e-06
                          CHANNELS 3 Zrotation Yrotation Xrotation
                          JOINT LeftHandRingEnd
                          {
                            OFFSET 1.936105 0.077687 -7.1e-05
                            CHANNELS 3 Zrotation Yrotation Xrotation
                          }
                        }
                      }
                    }
                  }
                  JOINT LeftHandPinky1
                  {
                    OFFSET 2.8655 -0.310005 -1.600378
                    CHANNELS 3 Zrotation Yrotation Xrotation
                    JOINT LeftHandPinky2
                    {
                      OFFSET 5.087849 -1.331141 -1.77123
                      CHANNELS 3 Zrotation Yrotation Xrotation
                      JOINT LeftHandPinky3
                      {
                        OFFSET 3.070974 4e-06 0.0
                        CHANNELS 3 Zrotation Yrotation Xrotation
                        JOINT LeftHandPinky4
                        {
                          OFFSET 1.549672 0.0 1e-06
                          CHANNELS 3 Zrotation Yrotation Xrotation
                          JOINT LeftHandPinkyEnd
                          {
                            OFFSET 1.944893 -0.157802 0.057219
                            CHANNELS 3 Zrotation Yrotation Xrotation
                          }
                        }
                      }
                    }
                  }
                }
              }
            }
          }
          JOINT RightShoulder
          {
            OFFSET -1.380118 23.180309 5.214158
            CHANNELS 3 Zrotation Yrotation Xrotation
            JOINT RightArm
            {
              OFFSET -15.037196 1.2e-05 -5.545604
              CHANNELS 3 Zrotation Yrotation Xrotation
              JOINT RightForeArm
              {
                OFFSET -28.736639 2e-06 -0.002597
                CHANNELS 3 Zrotation Yrotation Xrotation
                JOINT RightHand
                {
                  OFFSET -27.133619 -0.0 0.002613
                  CHANNELS 3 Zrotation Yrotation Xrotation
                  JOINT RightHandThumb1
                  {
                    OFFSET -2.274032 -1.383988 3.163127
                    CHANNELS 3 Zrotation Yrotation Xrotation
                    JOINT RightHandThumb2
                    {
                      OFFSET -4.011429 -1.827466 1.640914
                      CHANNELS 3 Zrotation Yrotation Xrotation
                      JOINT RightHandThumb3
                      {
                        OFFSET -2.794935 -4e-06 -3e-06
                        CHANNELS 3 Zrotation Yrotation Xrotation
                        JOINT RightHandThumbEnd
                        {
                          OFFSET -3.183852 4e-06 1e-06
                          CHANNELS 3 Zrotation Yrotation Xrotation
                        }
                      }
                    }
                  }
                  JOINT RightHandIndex1
                  {
                    OFFSET -3.253266 -0.520057 2.282866
                    CHANNELS 3 Zrotation Yrotation Xrotation
                    JOINT RightHandIndex2
                    {
                      OFFSET -6.341917 0.012471 0.178266
                      CHANNELS 3 Zrotation Yrotation Xrotation
                      JOINT RightHandIndex3
                      {
                        OFFSET -3.654871 -8e-06 -0.0
                        CHANNELS 3 Zrotation Yrotation Xrotation
                        JOINT RightHandIndex4
                        {
                          OFFSET -2.327586 0.0 1e-06
                          CHANNELS 3 Zrotation Yrotation Xrotation
                          JOINT RightHandIndexEnd
                          {
                            OFFSET -2.76179 -0.180656 -0.113078
                            CHANNELS 3 Zrotation Yrotation Xrotation
                          }
                        }
                      }
                    }
                  }
                  JOINT RightHandMiddle1
                  {
                    OFFSET -3.168106 0.246593 1.00103
                    CHANNELS 3 Zrotation Yrotation Xrotation
                    JOINT RightHandMiddle2
                    {
                      OFFSET -6.180828 -0.258836 -1.000895
                      CHANNELS 3 Zrotation Yrotation Xrotation
                      JOINT RightHandMiddle3
                      {
                        OFFSET -4.348901 0.0 -0.0
                        CHANNELS 3 Zrotation Yrotation Xrotation
                        JOINT RightHandMiddle4
                        {
                          OFFSET -3.00024 -4e-06 -2e-06
                          CHANNELS 3 Zrotation Yrotation Xrotation
                          JOINT RightHandMiddleEnd
                          {
                            OFFSET -2.30252 -0.29437 -0.031706
                            CHANNELS 3 Zrotation Yrotation Xrotation
                          }
                        }
                      }
                    }
                  }
                  JOINT RightHandRing1
                  {
                    OFFSET -2.88569 -0.067952 -0.308858
                    CHANNELS 3 Zrotation Yrotation Xrotation
                    JOINT RightHandRing2
                    {
                      OFFSET -5.854198 -0.48613 -1.373731
                      CHANNELS 3 Zrotation Yrotation Xrotation
                      JOINT RightHandRing3
                      {
                        OFFSET -4.33881 -4e-06 -0.0
                        CHANNELS 3 Zrotation Yrotation Xrotation
                        JOINT RightHandRing4
                        {
                          OFFSET -2.654903 -4e-06 4e-06
                          CHANNELS 3 Zrotation Yrotation Xrotation
                          JOINT RightHandRingEnd
                          {
                            OFFSET -1.933568 0.077527 -5.2e-05
                            CHANNELS 3 Zrotation Yrotation Xrotation
                          }
                        }
                      }
                    }
                  }
                  JOINT RightHandPinky1
                  {
                    OFFSET -2.866425 -0.342796 -1.584145
                    CHANNELS 3 Zrotation Yrotation Xrotation
                    JOINT RightHandPinky2
                    {
                      OFFSET -5.091371 -1.332055 -1.772385
                      CHANNELS 3 Zrotation Yrotation Xrotation
                      JOINT RightHandPinky3
                      {
                        OFFSET -3.062664 -4e-06 1e-06
                        CHANNELS 3 Zrotation Yrotation Xrotation
                        JOINT RightHandPinky4
                        {
                          OFFSET -1.546529 4e-06 -2e-06
                          CHANNELS 3 Zrotation Yrotation Xrotation
                          JOINT RightHandPinkyEnd
                          {
                            OFFSET -1.945119 -0.157718 0.057211
                            CHANNELS 3 Zrotation Yrotation Xrotation
                          }
                        }
                      }
                    }
                  }
                }
              }
            }
          }
        }
      }
    }
    JOINT LeftLeg
    {
      OFFSET 10.043214 -8.434526 2.595655
      CHANNELS 3 Zrotation Yrotation Xrotation
      JOINT LeftShin
      {
        OFFSET -1e-06 -43.221752 -0.802913
        CHANNELS 3 Zrotation Yrotation Xrotation
        JOINT LeftFoot
        {
          OFFSET 1e-06 -42.155094 -3.481523
          CHANNELS 3 Zrotation Yrotation Xrotation
          JOINT LeftToeBase
          {
            OFFSET 0.0 -5.059472 13.231529
            CHANNELS 3 Zrotation Yrotation Xrotation
            JOINT LeftToeEnd
            {
              OFFSET -0.009607 -1.647619 6.513017
              CHANNELS 3 Zrotation Yrotation Xrotation
            }
          }
        }
      }
    }
    JOINT RightLeg
    {
      OFFSET -10.047278 -8.29526 2.620317
      CHANNELS 3 Zrotation Yrotation Xrotation
      JOINT RightShin
      {
        OFFSET 1e-06 -43.362206 -0.805556
        CHANNELS 3 Zrotation Yrotation Xrotation
        JOINT RightFoot
        {
          OFFSET 2e-06 -42.117393 -3.478398
          CHANNELS 3 Zrotation Yrotation Xrotation
          JOINT RightToeBase
          {
            OFFSET -0.0 -5.079609 13.284196
            CHANNELS 3 Zrotation Yrotation Xrotation
            JOINT RightToeEnd
            {
              OFFSET 0.009532 -1.634378 6.460591
              CHANNELS 3 Zrotation Yrotation Xrotation
            }
          }
        }
      }
    }
  }
}
MOTION
Frames: 4
Frame Time: 0.03333333333333333
0.0 0.0 0.0 0.0 -0.0 0.0 -1.765984 103.156448 35.594494 0.732084 22.848228 6.025775 2.451709 0.531668 -2.305484 -0.209344 1.851905 -5.287262 -1.166061 -0.502379 6.512638 3.644939 2.154163 -7.772124 -2.015491 -3.343941 -3.615298 -1.846541 -7.485595 -3.609069 7.7e-05 -2.3e-05 6e-06 0.041872 0.086425 0.01708 0.771022 -3.651494 -10.506376 -0.688514 3.827376 -10.430504 8.626326 -4.551375 0.812158 -23.453188 -71.987617 -23.127621 -160.184662 -85.1558 163.490372 0.190013 -20.864475 39.102886 -5.882105 9.861286 0.702589 -10.936874 -0.360574 7.156206 3e-06 8.774827 -1e-06 -18.025949 17.265259 5.282188 -1.844033 2.498505 -2.50728 -10.163601 4.678946 4.621109 -20.976028 -5e-06 2e-06 -21.226292 2.451695 -3.593999 0.0 -6e-06 -1e-06 -1.362682 2.240798 -0.746324 -21.334919 0.584904 3.008324 -13.82122 -4e-06 2e-06 -23.887178 -0.249084 -0.83948 -62.603535 2.598329 -0.845222 -0.294025 1.679686 0.833257 -14.218212 0.093214 1.30058 -34.212051 -0.287568 0.967172 -20.033213 0.964535 1.212844 2e-06 0.0 -1e-06 -3.44039 0.788233 0.501655 -15.928189 -3.167312 2.999707 -6.338827 -2e-06 1e-06 -18.123447 3.648177 -4.90567 -5e-06 2e-06 -2e-06 -34.599709 20.144491 -12.609564 37.866451 60.20195 -68.343513 137.266098 87.18457 135.195648 -33.153484 -15.511274 25.493008 2.243543 -5.255042 -3.180161 14.282902 -0.826594 6.952509 -4e-06 -12.690616 -1e-06 16.285698 -17.970964 2.290027 1.665667 -1.955923 -2.878302 4.727802 -4.170592 4.993928 11.020535 3e-06 -1e-06 12.10906 -3.735717 -2.866786 1e-06 -0.0 0.0 1.291986 -1.928551 -1.49809 14.80014 0.56747 3.865611 14.242582 -1.341735 -6.660663 19.631985 0.143926 -0.648245 49.767082 -0.890605 -6.261251 0.353029 -1.511153 -0.03194 20.222803 3.684312 2.316633 18.787287 6e-06 0.0 10.751634 -0.479869 1.397907 -1e-06 1e-06 -1e-06 3.273809 0.305949 -0.580111 21.48683 11.830386 2.266138 8.162935 2e-06 0.0 18.399096 -3.798988 -4.940579 2e-06 1e-06 -1e-06 9.631686 6.898883 3.281625 0.10392 -0.811053 7.120254 -9.58811 -5.539253 18.965517 1.981684 -1.841634 -15.090772 0.0 0.0 2e-06 1.284565 -35.4277 -6.442158 0.047673 -0.239201 2.212383 1.778498 -5.844587 7.771475 -1.367566 0.678219 -3.201706 0.0 0.0 -1e-06 
0.0 0.0 0.0 0.0 -0.0 0.0 -1.699099 103.093597 35.360477 0.83545 22.990967 6.080426 2.599494 0.52933 -2.284497 -0.162007 1.860009 -5.262076 -1.134042 -0.528406 6.609715 3.463199 2.297944 -8.530175 -2.013595 -3.501203 -3.614158 -1.904417 -7.508555 -3.509411 7.7e-05 -2.3e-05 6e-06 0.038503 0.078028 0.00844 0.766514 -3.65822 -10.517925 -0.691283 3.817528 -10.434635 8.70118 -4.605432 0.811567 -25.062569 -72.781006 -22.215656 -154.768036 -85.94339 158.217072 -0.603139 -20.819515 40.120689 -5.882109 9.861292 0.702588 -10.936877 -0.360577 7.156208 0.0 8.774832 -3e-06 -18.031715 17.222458 5.237823 -1.844032 2.498508 -2.507281 -10.163605 4.678946 4.62111 -20.976038 -4e-06 -2e-06 -21.226299 2.451696 -3.594005 1e-06 -6e-06 -2e-06 -1.362682 2.2408 -0.746325 -21.334925 0.584909 3.008324 -13.82122 -3e-06 1e-06 -23.887184 -0.249081 -0.839486 -62.735828 2.604385 -0.870813 -0.294025 1.679686 0.833256 -14.218217 0.093212 1.300581 -34.212074 -0.287569 0.967174 -20.033226 0.964535 1.212847 1e-06 0.0 -1e-06 -3.440392 0.788233 0.501655 -15.928196 -3.167313 2.99971 -6.338831 -1e-06 1e-06 -18.123457 3.648183 -4.905676 -4e-06 2e-06 -2e-06 -34.79073 20.297657 -12.567057 36.721203 61.226986 -69.205872 109.588409 88.094528 107.555824 -33.883968 -16.153236 24.142956 2.243542 -5.25504 -3.180158 14.282896 -0.826595 6.952507 -1e-06 -12.69061 -0.0 16.227837 -17.988222 2.328374 1.665666 -1.955923 -2.878299 4.727801 -4.170591 4.993927 11.020531 3e-06 0.0 12.109058 -3.735719 -2.866784 0.0 -0.0 0.0 1.291986 -1.928551 -1.498089 14.800134 0.567468 3.865611 14.242577 -1.341739 -6.660658 19.631973 0.143925 -0.648243 49.792068 -0.839499 -6.232691 0.353029 -1.511152 -0.03194 20.222801 3.684309 2.316633 18.787283 3e-06 1e-06 10.751634 -0.479869 1.397907 -2e-06 1e-06 -0.0 3.273808 0.305947 -0.58011 21.486824 11.83038 2.266137 8.16293 0.0 0.0 18.399088 -3.798988 -4.940577 2e-06 0.0 -1e-06 9.432284 6.874657 2.77149 0.102937 -0.823655 7.744885 -9.517515 -5.640582 18.193716 1.978674 -1.859111 -14.918572 0.0 0.0 3e-06 1.215477 -35.545074 -6.575299 0.04769 -0.21942 2.225836 1.721447 -5.8394 7.464024 -1.371163 0.664306 -3.033487 -0.0 1e-06 -1e-06 
0.0 0.0 0.0 0.0 -0.0 0.0 -1.747572 103.034782 35.189732 1.000839 23.139042 6.154383 2.715601 0.524348 -2.261541 -0.135713 1.854397 -5.241086 -1.093727 -0.549209 6.725584 3.369957 2.36067 -9.275814 -2.021832 -3.577507 -3.597856 -1.973367 -7.53506 -3.523377 7.7e-05 -2.3e-05 6e-06 0.037373 0.08578 0.005666 0.769169 -3.645765 -10.51467 -0.696511 3.82121 -10.434664 8.756824 -4.696647 0.86167 -25.964521 -73.144463 -22.1063 -150.497864 -86.295883 154.021683 -1.14844 -20.804497 40.761478 -5.88211 9.861293 0.70259 -10.93688 -0.360579 7.156213 3e-06 8.774833 -0.0 -18.03882 17.160999 5.17465 -1.844034 2.498506 -2.507281 -10.163604 4.678944 4.621116 -20.97604 -7e-06 3e-06 -21.226301 2.451694 -3.593999 0.0 -6e-06 -1e-06 -1.362682 2.2408 -0.746325 -21.33493 0.584904 3.008327 -13.821225 -5e-06 6e-06 -23.887188 -0.249082 -0.839479 -62.814968 2.607454 -0.896199 -0.294025 1.679688 0.833256 -14.21822 0.093209 1.300582 -34.212078 -0.287572 0.967181 -20.03323 0.964536 1.212852 1e-06 0.0 -1e-06 -3.44039 0.788234 0.501656 -15.9282 -3.167315 2.999711 -6.338832 -3e-06 2e-06 -18.123457 3.648182 -4.905673 -4e-06 1e-06 -2e-06 -34.814381 20.4307 -12.48516 35.594757 62.140392 -69.885162 70.079346 88.226349 68.207581 -34.421013 -17.037642 23.139633 2.243542 -5.25504 -3.180159 14.282898 -0.826595 6.952507 -2e-06 -12.690608 -0.0 16.216894 -17.99551 2.356995 1.665667 -1.955923 -2.8783 4.727802 -4.17059 4.993926 11.02053 2e-06 0.0 12.109056 -3.735719 -2.866784 0.0 -0.0 -0.0 1.291986 -1.928549 -1.49809 14.800136 0.567469 3.865611 14.242579 -1.341739 -6.660659 19.631979 0.143922 -0.648243 49.89838 -0.773344 -6.179206 0.353029 -1.511153 -0.03194 20.222803 3.684311 2.316633 18.787287 4e-06 -0.0 10.751635 -0.47987 1.397906 -3e-06 -0.0 -0.0 3.273808 0.305946 -0.580111 21.486826 11.830379 2.266137 8.16293 2e-06 0.0 18.399094 -3.798987 -4.940576 3e-06 -0.0 -1e-06 9.2694 6.908217 2.44032 0.101185 -0.836542 8.050534 -9.556308 -5.798944 17.717684 1.969953 -1.867498 -14.767689 0.0 1e-06 3e-06 1.134065 -35.621284 -6.704424 0.049528 -0.204868 2.231279 1.617827 -5.837101 7.114189 -1.375797 0.667473 -2.825845 0.0 0.0 -1e-06 
0.0 0.0 0.0 0.0 -0.0 0.0 -1.887973 102.986313 35.04554 1.174247 23.319147 6.231555 2.828282 0.510038 -2.235122 -0.112185 1.848928 -5.228087 -1.052117 -0.589311 6.86094 3.392009 2.364172 -9.974443 -2.039198 -3.604914 -3.588747 -2.088438 -7.585167 -3.632776 7.7e-05 -2.2e-05 6e-06 0.036748 0.096647 0.002008 0.776317 -3.629894 -10.521511 -0.705221 3.827425 -10.444405 8.779997 -4.828651 0.962364 -26.030945 -73.173225 -22.788868 -150.14537 -86.361809 153.664978 -1.495833 -20.749298 41.185246 -5.882102 9.861279 0.702589 -10.936865 -0.360575 7.156204 0.0 8.774821 -2e-06 -18.085104 17.093517 5.116807 -1.844031 2.498502 -2.507279 -10.163595 4.67894 4.621107 -20.976009 -4e-06 3e-06 -21.226271 2.451693 -3.593995 0.0 -6e-06 -1e-06 -1.362682 2.240798 -0.746324 -21.334904 0.584907 3.008321 -13.821205 -4e-06 3e-06 -23.887157 -0.24908 -0.839479 -62.893661 2.627182 -0.899059 -0.294024 1.679689 0.833256 -14.218199 0.093214 1.300581 -34.212032 -0.287568 0.967172 -20.033201 0.964534 1.212844 1e-06 0.0 0.0 -3.440386 0.788233 0.501657 -15.928179 -3.16731 2.999707 -6.338824 -2e-06 1e-06 -18.12344 3.648179 -4.905667 -5e-06 2e-06 -2e-06 -34.766201 20.542511 -12.354918 34.280003 62.926029 -70.760788 40.243298 87.66301 38.463215 -34.886948 -17.911203 22.595913 2.243542 -5.25504 -3.180159 14.282896 -0.826595 6.952505 -2e-06 -12.690605 -0.0 16.204714 -17.976864 2.418194 1.665666 -1.955922 -2.878299 4.7278 -4.170589 4.993925 11.020528 2e-06 -1e-06 12.109055 -3.735717 -2.866785 -0.0 -1e-06 0.0 1.291986 -1.928548 -1.49809 14.800132 0.567468 3.86561 14.242577 -1.341737 -6.66066 19.631975 0.143925 -0.648245 49.98254 -0.762313 -6.152017 0.353029 -1.511153 -0.03194 20.222801 3.684311 2.316632 18.787279 5e-06 -0.0 10.75163 -0.479869 1.397906 -2e-06 0.0 -1e-06 3.273808 0.305949 -0.580111 21.48682 11.830377 2.266135 8.16293 1e-06 -0.0 18.399088 -3.798985 -4.940578 2e-06 0.0 -1e-06 9.174148 6.987995 2.133888 0.102842 -0.846132 8.279449 -9.692493 -5.979397 17.438801 1.966387 -1.880008 -14.616978 0.0 0.0 3e-06 1.106619 -35.702248 -6.83384 0.049871 -0.195987 2.219113 1.441143 -5.800203 6.792437 -1.378745 0.671765 -2.647062 -0.0 0.0 -1e-06 
